<?xml version="1.0" encoding="UTF-8" standalone="no"?>
<!-- Created with Inkscape (http://www.inkscape.org/) -->

<svg
   width="128"
   height="128"
   viewBox="0 0 33.866666 33.866666"
   version="1.1"
   id="svg1"
   inkscape:version="1.4 (86a8ad7, 2024-10-11)"
   sodipodi:docname="player.svg"
   xmlns:inkscape="http://www.inkscape.org/namespaces/inkscape"
   xmlns:sodipodi="http://sodipodi.sourceforge.net/DTD/sodipodi-0.dtd"
   xmlns="http://www.w3.org/2000/svg"
   xmlns:svg="http://www.w3.org/2000/svg">
  <sodipodi:namedview
     id="namedview1"
     pagecolor="#ffffff"
     bordercolor="#000000"
     borderopacity="0.25"
     inkscape:showpageshadow="2"
     inkscape:pageopacity="0.0"
     inkscape:pagecheckerboard="0"
     inkscape:deskcolor="#d1d1d1"
     inkscape:document-units="mm"
     inkscape:zoom="1"
     inkscape:cx="55.5"
     inkscape:cy="80"
     inkscape:window-width="1920"
     inkscape:window-height="976"
     inkscape:window-x="-8"
     inkscape:window-y="-8"
     inkscape:window-maximized="1"
     inkscape:current-layer="layer1" />
  <defs
     id="defs1" />
  <g
     inkscape:label="Layer 1"
     inkscape:groupmode="layer"
     id="layer1">
    <path
       style="fill:#000000;fill-opacity:1;stroke:none;stroke-width:0.264583;stroke-opacity:1"
       id="path10"
       d="m 5.9557512,7.7255705 c 0.088866,0.6672194 0.1859576,1.3333944 0.2665989,2.0016576 0.07384,0.6119019 0.1274913,1.2260889 0.1968071,1.8385209 0.1532269,1.35382 0.4044511,2.722618 0.2480469,4.087513 0.3674301,1.315914 0.2544207,2.670933 0.218353,4.019242 -0.027752,1.367021 -0.02064,2.734406 -0.014655,4.101585 0.00185,0.423705 0.028533,0.847961 0.00672,1.271108 -0.021492,0.416974 -0.1830036,1.386166 -0.2533166,1.83412 -0.064965,0.783526 -0.092708,0.844134 -0.075481,1.585328 0.00433,0.186187 0.044866,0.371874 0.033024,0.557733 -0.00673,0.105693 -0.060535,0.20301 -0.088014,0.305292 -0.1273088,0.473867 -0.099541,0.37288 -0.1849615,0.833324 -0.040554,0.325083 0.012446,0.648065 0.038915,0.971717 0,0 1.0547448,-0.08708 1.0547448,-0.08708 v 0 c -0.019346,-0.232338 -0.054433,-0.462084 -0.052488,-0.694817 0.08251,-0.462465 0.2537624,-0.923684 0.2881659,-1.39301 0.011978,-0.163399 -0.026521,-0.326752 -0.031055,-0.490524 -0.018449,-0.666287 0.00627,-0.712806 0.062754,-1.424308 0.090605,-0.580451 0.236958,-1.442721 0.266032,-2.003372 0.021913,-0.42254 -0.00486,-0.846201 -0.00672,-1.269305 -0.00595,-1.35648 -0.013084,-2.713165 0.014285,-4.069492 0.03334,-1.246241 0.2378052,-2.751318 -0.2239909,-3.934794 C 7.8664119,14.31607 7.6345448,12.89317 7.4714689,11.453001 7.4010969,10.831525 7.3463525,10.208295 7.271401,9.587355 7.1921276,8.9306092 7.0963559,8.2759599 7.0088333,7.6202626 Z" />
    <path
       style="fill:#000000;fill-opacity:1;stroke:none;stroke-width:0.264583;stroke-opacity:1"
       id="path11"
       d="m 7.4763891,8.1642354 c 0.7091304,0.2659684 1.4182534,0.5319564 2.1273913,0.7979052 0.7055486,0.264603 1.3995156,0.5624333 2.1166666,0.79375 1.902971,0.6138034 3.877627,0.9533914 5.874344,0.9597344 0.188677,-0.0236 0.376136,-0.06101 0.566031,-0.07079 0.01944,-0.001 -0.01947,0.04565 -0.03884,0.04363 -0.05606,-0.0059 -0.109933,-0.09579 -0.156497,-0.06403 -0.03914,0.0267 0.03694,0.08827 0.06519,0.126305 0.122899,0.165454 0.250829,0.327505 0.386893,0.482314 0.183098,0.208321 0.379916,0.404171 0.569875,0.606257 0.26164,0.26037 0.558619,0.489501 0.784922,0.781109 0.596942,0.769203 0.842669,1.922332 0.670999,2.86885 -0.0017,0.41249 0.327697,0.789309 0.232841,1.210134 -0.04036,0.179043 -0.852983,1.095455 -0.972747,1.24418 -0.08205,0.05218 -0.156186,0.119633 -0.246145,0.156537 -0.07654,0.0314 -0.164665,0.02163 -0.244142,0.04459 -0.130153,0.0376 -0.255266,0.09085 -0.38281,0.136521 -0.73449,0.263027 -1.471944,0.515198 -2.211426,0.76391 -0.847771,0.52913 -1.805242,0.68447 -2.760207,0.89326 -0.572674,0.125207 -1.113934,0.285295 -1.70253,0.264743 -0.14834,0.03413 -0.298037,0.06282 -0.44502,0.102382 -0.09472,0.0255 -0.183266,0.07275 -0.279329,0.09261 -0.463432,0.09578 -0.94869,-0.04823 -1.412034,-0.0032 -0.1906963,0.01855 -0.3732506,0.08672 -0.5598758,0.130077 -0.8584361,0.25071 -1.7625277,0.1944 -2.6405575,0.101496 -0.2800104,-0.0058 -0.1357654,-0.0063 -0.4327281,0.003 0,0 0.035494,1.057738 0.035494,1.057738 v 0 c 0.2183805,-0.0079 0.123053,-0.0057 0.2859395,-0.0083 1.010236,0.106763 2.0482422,0.151424 3.035351,-0.134306 0.7084449,-0.272795 1.6725959,0.150491 2.4004559,-0.283293 0.673774,-0.0019 1.276781,-0.143158 1.934615,-0.287743 0.988145,-0.217185 1.998712,-0.387524 2.877829,-0.925412 0.745968,-0.250928 1.490302,-0.504446 2.230938,-0.770686 0.11916,-0.04283 0.891391,-0.320991 0.892917,-0.321825 0.165952,-0.09076 0.298493,-0.2324 0.44774,-0.3486 0.491557,-0.611083 1.092802,-1.202765 1.199989,-2.025905 0.03014,-0.231444 -0.04693,-0.465098 -0.09168,-0.694166 -0.06573,-0.336457 -0.03473,-0.337291 -0.147286,-0.234071 0.187637,-1.330068 -0.138058,-2.704891 -0.970244,-3.782939 -0.218638,-0.283231 -0.507492,-0.504521 -0.761236,-0.756781 -0.196343,-0.207547 -0.612937,-0.62728 -0.812634,-0.895804 -0.06318,-0.08495 -0.09482,-0.192498 -0.166321,-0.2705703 C 18.444987,9.5827338 18.054562,9.5500644 17.594791,9.6572915 15.731243,9.6640278 13.866175,9.337296 12.092053,8.7649425 11.374915,8.5335847 10.680949,8.2357562 9.9753861,7.9711925 9.2734126,7.7079747 8.5714249,7.444796 7.869444,7.1815978 Z" />
  </g>
</svg>
